<svg width="14" height="24" viewBox="0 0 14 24" fill="none" xmlns="http://www.w3.org/2000/svg">
<path fill-rule="evenodd" clip-rule="evenodd" d="M12 1H2C1.44775 1 1 1.44922 1 2V2.5H13V2C13 1.70312 12.8701 1.4375 12.6641 1.25391C12.4873 1.09375 12.2549 1 12 1ZM0 2.5V3.5V18.5V19.5V22C0 23.1055 0.895508 24 2 24H12C12.6602 24 13.2456 23.6797 13.6099 23.1875C13.855 22.8555 14 22.4453 14 22V19.5V18.5V3.5V3V2C14 0.894531 13.1045 0 12 0H2C1.5498 0 1.13428 0.148438 0.799805 0.398438C0.313965 0.761719 0 1.34375 0 2V2.5ZM1 3.5V18.5H13V3.5H1ZM1 22V19.5H13V22C13 22.5508 12.5522 23 12 23H2C1.69092 23 1.41455 22.8594 1.23145 22.6367C1.08691 22.4648 1 22.2422 1 22ZM8 21C8 21.5508 7.55225 22 7 22C6.44775 22 6 21.5508 6 21C6 20.4492 6.44775 20 7 20C7.55225 20 8 20.4492 8 21Z" fill="#432EAB"/>
</svg>
